<?xml version="1.0" standalone="no"?>
<!DOCTYPE svg PUBLIC "-//W3C//DTD SVG 20010904//EN"
 "http://www.w3.org/TR/2001/REC-SVG-20010904/DTD/svg10.dtd">
<svg version="1.0" xmlns="http://www.w3.org/2000/svg"
 width="222.000000pt" height="227.000000pt" viewBox="0 0 222.000000 227.000000"
 preserveAspectRatio="xMidYMid meet">

<g transform="translate(0.000000,227.000000) scale(0.100000,-0.100000)"
fill="#000000" stroke="none">
<path d="M975 2230 c-472 -67 -840 -406 -943 -870 -23 -103 -23 -347 0 -450
71 -321 277 -596 555 -742 184 -97 319 -131 518 -132 166 0 264 18 410 75 347
134 610 452 679 819 20 105 21 304 1 407 -82 431 -419 781 -844 873 -103 23
-289 33 -376 20z m390 -85 c118 -30 275 -104 365 -173 92 -70 208 -194 263
-284 48 -76 109 -215 121 -273 l7 -30 -1005 0 c-552 0 -1007 3 -1010 6 -10 9
39 142 83 226 128 245 368 444 626 519 174 50 375 54 550 9z m-766 -973 l66
-152 3 155 c2 147 4 155 22 155 19 0 20 -7 20 -186 l0 -185 -27 3 c-24 3 -33
17 -95 158 l-67 155 -1 -157 c0 -151 -1 -158 -20 -158 -19 0 -20 7 -20 186 l0
185 27 -3 c24 -3 33 -17 92 -156z m1161 -32 c0 -164 -2 -189 -15 -184 -13 5
-15 36 -15 190 0 157 2 184 15 184 13 0 15 -28 15 -190z m-722 137 c3 -32 7
-37 28 -37 15 0 24 -6 24 -15 0 -9 -9 -15 -25 -15 l-26 0 3 -112 c3 -109 4
-113 26 -116 12 -2 22 -10 22 -18 0 -16 -33 -19 -61 -4 -17 10 -19 22 -19 130
0 113 -1 120 -20 120 -11 0 -20 7 -20 15 0 8 9 15 20 15 17 0 20 7 20 41 0 52
24 48 28 -4z m-132 -51 c16 -13 19 -29 22 -130 2 -64 8 -116 13 -116 5 0 9 -7
9 -15 0 -8 -4 -15 -9 -15 -21 0 -41 13 -41 26 0 10 -6 8 -20 -6 -30 -30 -83
-27 -109 6 -45 58 -18 115 64 140 53 15 55 17 55 49 0 61 -79 70 -94 11 -7
-30 -36 -35 -36 -7 0 10 9 30 21 45 16 21 29 26 63 26 23 0 51 -6 62 -14z
m249 -107 c1 -64 5 -121 9 -127 4 -7 19 -12 34 -12 52 0 57 10 62 137 4 96 8
118 20 118 13 0 15 -22 15 -139 0 -103 -3 -140 -12 -143 -8 -3 -13 4 -13 17
l0 21 -26 -20 c-31 -24 -72 -27 -100 -7 -17 13 -19 29 -22 146 -3 121 -2 132
14 128 15 -3 18 -17 19 -119z m235 99 l0 -22 16 22 c17 25 64 30 64 7 0 -8 -9
-15 -20 -15 -11 0 -29 -9 -40 -20 -17 -17 -20 -33 -20 -125 0 -87 -3 -105 -15
-105 -13 0 -15 22 -15 140 0 118 2 140 15 140 9 0 15 -9 15 -22z m256 1 c15
-17 19 -40 22 -130 3 -60 8 -109 13 -109 5 0 9 -7 9 -15 0 -20 -34 -19 -50 0
-12 14 -15 14 -30 0 -24 -21 -76 -19 -100 5 -24 24 -26 77 -5 108 9 13 39 28
70 38 53 15 55 17 55 49 0 63 -80 71 -96 10 -8 -33 -34 -33 -34 0 0 39 33 65
83 65 32 0 49 -6 63 -21z m468 -371 c-50 -171 -149 -332 -281 -458 -142 -137
-285 -218 -471 -267 -125 -33 -340 -37 -467 -9 -196 43 -361 134 -506 276
-100 99 -154 171 -209 280 -33 66 -80 193 -80 217 0 11 179 13 1014 13 l1015
0 -15 -52z"/>
<path d="M750 1860 c0 -19 -40 -50 -65 -50 -14 0 -25 -4 -25 -10 0 -5 18 -10
40 -10 l40 0 0 -135 c0 -113 2 -135 15 -135 13 0 15 26 15 175 0 110 -4 175
-10 175 -5 0 -10 -4 -10 -10z"/>
<path d="M893 1858 c-38 -18 -53 -67 -53 -168 0 -108 16 -152 62 -171 38 -16
74 -4 102 34 17 23 22 46 25 114 4 101 -9 154 -46 182 -28 23 -56 25 -90 9z
m93 -53 c19 -45 19 -185 0 -230 -13 -31 -19 -35 -50 -35 -55 0 -69 36 -64 165
3 116 13 135 65 135 29 0 36 -5 49 -35z"/>
<path d="M1133 1860 c-40 -16 -57 -66 -57 -171 0 -112 19 -157 71 -172 66 -19
110 28 120 127 17 162 -40 254 -134 216z m83 -41 c16 -18 19 -37 19 -129 0
-92 -3 -111 -19 -129 -27 -30 -71 -28 -93 5 -24 38 -24 210 0 248 22 33 66 35
93 5z"/>
<path d="M1340 1850 c-15 -15 -20 -33 -20 -71 0 -69 12 -89 55 -89 44 0 65 29
65 92 0 53 -24 88 -60 88 -11 0 -29 -9 -40 -20z m60 -15 c12 -15 16 -97 5
-115 -10 -17 -44 -11 -55 9 -15 28 -12 73 6 99 18 26 27 27 44 7z"/>
<path d="M1493 1773 c-23 -54 -57 -135 -77 -180 -22 -52 -31 -83 -23 -83 10 0
158 331 157 353 -1 27 -22 -6 -57 -90z"/>
<path d="M1510 1671 c-18 -35 -12 -119 10 -141 46 -46 100 -9 100 68 0 63 -21
92 -65 92 -24 0 -38 -6 -45 -19z m76 -13 c14 -23 8 -98 -10 -116 -16 -16 -18
-16 -37 7 -21 26 -24 56 -9 95 10 27 43 35 56 14z"/>
<path d="M848 1093 c-52 -15 -66 -39 -54 -88 12 -45 95 -25 97 23 1 17 4 83 4
81 0 -1 -21 -8 -47 -16z"/>
<path d="M1582 1091 c-51 -16 -68 -43 -53 -84 8 -21 17 -27 39 -27 42 0 64 29
60 81 l-3 44 -43 -14z"/>
<path d="M430 575 c0 -77 4 -125 10 -125 6 0 10 25 10 55 l0 55 38 0 c48 0 70
16 78 57 9 47 -29 83 -91 83 l-45 0 0 -125z m99 96 c17 -11 19 -67 4 -82 -6
-6 -26 -12 -44 -12 l-34 -2 -3 53 -3 52 33 0 c18 0 39 -4 47 -9z"/>
<path d="M600 575 c0 -77 4 -125 10 -125 6 0 10 25 10 55 l0 55 40 0 c34 0 42
-4 50 -26 6 -14 10 -39 10 -55 0 -16 5 -29 10 -29 18 0 12 88 -7 108 -17 16
-17 18 0 35 9 9 17 30 17 46 0 40 -32 61 -92 61 l-48 0 0 -125z m110 86 c24
-45 -1 -81 -56 -81 l-34 0 0 50 0 50 40 0 c29 0 42 -5 50 -19z"/>
<path d="M801 674 c-17 -21 -21 -41 -21 -95 0 -81 13 -114 51 -129 21 -9 34
-9 56 2 52 25 66 166 21 223 -27 35 -79 34 -107 -1z m97 -12 c18 -23 16 -152
-4 -180 -19 -27 -48 -28 -74 -2 -16 16 -20 33 -20 90 0 62 3 74 24 95 26 26
51 25 74 -3z"/>
<path d="M970 575 l0 -125 55 0 c42 0 59 5 73 21 24 25 35 100 22 154 -12 54
-41 75 -101 75 l-49 0 0 -125z m116 81 c21 -34 21 -142 -1 -166 -9 -10 -32
-20 -51 -22 l-34 -4 0 108 0 108 35 0 c26 0 39 -6 51 -24z"/>
<path d="M1160 596 c0 -123 13 -150 73 -150 61 0 67 12 67 140 0 69 -4 114
-10 114 -6 0 -10 -43 -10 -108 0 -114 -6 -132 -46 -132 -41 0 -54 35 -54 142
0 59 -4 98 -10 98 -6 0 -10 -41 -10 -104z"/>
<path d="M1371 681 c-25 -25 -35 -77 -29 -143 4 -40 12 -57 32 -75 35 -30 61
-29 91 2 25 24 34 65 15 65 -5 0 -10 -8 -10 -18 0 -22 -30 -52 -52 -52 -31 0
-52 39 -55 103 -5 79 11 111 55 115 26 3 34 -1 44 -22 12 -29 28 -34 28 -11 0
47 -83 72 -119 36z"/>
<path d="M1510 690 c0 -5 14 -10 30 -10 l30 0 0 -115 c0 -70 4 -115 10 -115 6
0 10 45 10 115 l0 115 35 0 c19 0 35 5 35 10 0 6 -32 10 -75 10 -43 0 -75 -4
-75 -10z"/>
<path d="M1697 682 c-36 -39 -16 -94 40 -113 50 -16 63 -27 63 -55 0 -57 -70
-74 -98 -24 -20 35 -36 40 -26 8 10 -33 21 -45 51 -53 35 -8 82 12 89 40 12
47 1 69 -46 91 -56 27 -70 40 -70 64 0 24 41 53 64 44 10 -4 22 -18 29 -33 11
-26 11 -26 15 -3 2 13 -2 30 -8 38 -18 20 -83 18 -103 -4z"/>
</g>
</svg>
